<svg xmlns="http://www.w3.org/2000/svg" xmlns:xlink="http://www.w3.org/1999/xlink" width="60" zoomAndPan="magnify" viewBox="0 0 45 44.999999" height="60" preserveAspectRatio="xMidYMid meet" version="1.0"><path fill="#ffffff" d="M 22.5 0 C 10.089844 0 0 10.089844 0 22.5 C 0 34.910156 10.089844 45 22.5 45 C 34.910156 45 45 34.910156 45 22.5 C 45 10.089844 34.910156 0 22.5 0 Z M 22.5 43.421875 C 10.949219 43.421875 1.578125 34.050781 1.578125 22.5 C 1.578125 10.949219 10.949219 1.578125 22.5 1.578125 C 34.050781 1.578125 43.421875 10.949219 43.421875 22.5 C 43.421875 34.050781 34.050781 43.421875 22.5 43.421875 Z M 22.5 43.421875 " fill-opacity="1" fill-rule="nonzero"/><path fill="#ffffff" d="M 33.828125 15.25 L 26.210938 22.5 L 33.828125 29.75 C 34.03125 29.46875 34.164062 29.160156 34.21875 28.820312 L 34.21875 16.179688 C 34.164062 15.839844 34.03125 15.53125 33.828125 15.25 Z M 33.828125 15.25 " fill-opacity="1" fill-rule="nonzero"/><path fill="#ffffff" d="M 22.5 26.03125 L 19.367188 23.046875 L 11.753906 30.292969 C 12.113281 30.527344 12.503906 30.644531 12.933594 30.644531 L 32.066406 30.644531 C 32.496094 30.644531 32.886719 30.527344 33.246094 30.292969 L 25.632812 23.046875 Z M 22.5 26.03125 " fill-opacity="1" fill-rule="nonzero"/><path fill="#ffffff" d="M 11.171875 15.25 C 10.96875 15.53125 10.835938 15.839844 10.78125 16.179688 L 10.78125 28.820312 C 10.835938 29.160156 10.96875 29.46875 11.171875 29.75 L 18.789062 22.5 Z M 11.171875 15.25 " fill-opacity="1" fill-rule="nonzero"/><path fill="#ffffff" d="M 19.367188 21.953125 L 22.5 24.941406 L 33.246094 14.707031 C 32.886719 14.472656 32.496094 14.355469 32.066406 14.355469 L 12.933594 14.355469 C 12.503906 14.355469 12.113281 14.472656 11.753906 14.707031 Z M 19.367188 21.953125 " fill-opacity="1" fill-rule="nonzero"/></svg>