<svg xmlns="http://www.w3.org/2000/svg" xmlns:xlink="http://www.w3.org/1999/xlink" width="500" zoomAndPan="magnify" viewBox="0 0 375 374.999991" height="500" preserveAspectRatio="xMidYMid meet" version="1.0"><defs><g/><clipPath id="bd8607552e"><path d="M 89 34 L 285.941406 34 L 285.941406 234 L 89 234 Z M 89 34 " clip-rule="nonzero"/></clipPath></defs><g clip-path="url(#bd8607552e)"><path fill="#ffffff" d="M 164.851562 157.8125 C 164.851562 171.046875 176.070312 181.664062 189.523438 180.664062 C 200.871094 179.820312 209.972656 170.566406 210.644531 159.207031 C 211.382812 146.742188 202.152344 136.277344 190.179688 135.023438 C 189.8125 134.984375 189.535156 134.6875 189.535156 134.320312 L 189.535156 110.09375 C 189.535156 109.789062 189.726562 109.515625 190.015625 109.425781 C 193.421875 108.386719 195.824219 105.042969 195.402344 101.207031 C 195.011719 97.683594 192.164062 94.839844 188.644531 94.449219 C 184.011719 93.9375 180.089844 97.550781 180.089844 102.082031 C 180.089844 105.539062 182.375 108.460938 185.515625 109.425781 C 185.808594 109.511719 186.003906 109.789062 186.003906 110.09375 L 186.003906 134.320312 C 186.003906 134.6875 185.722656 134.984375 185.359375 135.023438 C 173.835938 136.226562 164.851562 145.964844 164.851562 157.8125 Z M 108.699219 69.277344 C 108.261719 72.714844 111.164062 75.617188 114.601562 75.179688 C 116.945312 74.882812 118.835938 72.992188 119.132812 70.648438 C 119.570312 67.210938 116.667969 64.308594 113.230469 64.746094 C 110.886719 65.042969 108.996094 66.9375 108.699219 69.277344 Z M 141.78125 48.453125 C 145.21875 48.890625 148.121094 45.984375 147.6875 42.546875 C 147.390625 40.203125 145.496094 38.3125 143.15625 38.015625 C 139.714844 37.578125 136.8125 40.480469 137.25 43.917969 C 137.546875 46.261719 139.4375 48.152344 141.78125 48.453125 Z M 232.390625 48.453125 C 235.824219 48.886719 238.722656 45.984375 238.289062 42.550781 C 237.996094 40.210938 236.109375 38.320312 233.765625 38.015625 C 230.320312 37.570312 227.40625 40.484375 227.855469 43.929688 C 228.15625 46.269531 230.046875 48.15625 232.390625 48.453125 Z M 260.9375 75.179688 C 264.371094 75.617188 267.277344 72.714844 266.839844 69.277344 C 266.542969 66.9375 264.648438 65.042969 262.304688 64.746094 C 258.871094 64.308594 255.96875 67.210938 256.402344 70.648438 C 256.699219 72.992188 258.59375 74.882812 260.9375 75.179688 Z M 111.644531 78.460938 C 107.894531 77.457031 105.121094 74.027344 105.121094 69.964844 C 105.121094 64.640625 109.878906 60.40625 115.363281 61.285156 C 119.210938 61.902344 122.21875 65.082031 122.65625 68.953125 C 123.160156 73.449219 120.246094 77.375 116.1875 78.460938 C 115.886719 78.539062 115.683594 78.824219 115.683594 79.136719 L 115.683594 112.933594 C 115.683594 113.246094 115.886719 113.519531 116.1875 113.609375 L 155.894531 125.429688 C 156.132812 125.503906 156.386719 125.441406 156.570312 125.277344 C 160.132812 122.039062 164.21875 119.355469 168.589844 117.363281 C 169.066406 117.144531 169.140625 116.5 168.738281 116.171875 L 141.347656 93.695312 C 140.9375 93.359375 140.703125 92.859375 140.703125 92.332031 L 140.703125 52.40625 C 140.703125 52.09375 140.5 51.8125 140.199219 51.730469 C 136.445312 50.730469 133.671875 47.296875 133.671875 43.230469 C 133.671875 37.910156 138.429688 33.675781 143.917969 34.554688 C 147.765625 35.171875 150.773438 38.347656 151.207031 42.21875 C 151.710938 46.71875 148.800781 50.644531 144.742188 51.730469 C 144.4375 51.8125 144.238281 52.09375 144.238281 52.40625 L 144.234375 91.160156 C 144.234375 91.371094 144.328125 91.574219 144.492188 91.707031 L 164.160156 107.84375 C 164.679688 108.269531 165.441406 107.796875 165.292969 107.136719 C 164.929688 105.5 164.738281 103.804688 164.738281 102.082031 C 164.738281 88.789062 176.058594 78.089844 189.566406 79.121094 C 201.054688 79.996094 210.226562 89.449219 210.773438 100.957031 C 210.871094 103.074219 210.6875 105.144531 210.242188 107.136719 C 210.09375 107.796875 210.859375 108.269531 211.378906 107.84375 L 231.046875 91.707031 C 231.210938 91.574219 231.304688 91.371094 231.304688 91.160156 L 231.300781 52.40625 C 231.300781 52.09375 231.101562 51.8125 230.796875 51.730469 C 227.046875 50.726562 224.277344 47.296875 224.277344 43.230469 C 224.277344 37.90625 229.035156 33.667969 234.523438 34.554688 C 238.375 35.179688 241.378906 38.355469 241.808594 42.234375 C 242.308594 46.726562 239.398438 50.648438 235.339844 51.730469 C 235.039062 51.8125 234.835938 52.09375 234.835938 52.40625 L 234.835938 92.332031 C 234.835938 92.859375 234.601562 93.359375 234.191406 93.695312 L 206.800781 116.171875 C 206.394531 116.5 206.472656 117.144531 206.949219 117.363281 C 211.316406 119.355469 215.40625 122.039062 218.96875 125.277344 C 219.152344 125.441406 219.40625 125.503906 219.640625 125.429688 L 259.351562 113.609375 C 259.648438 113.519531 259.855469 113.246094 259.855469 112.933594 L 259.855469 79.136719 C 259.855469 78.824219 259.652344 78.539062 259.351562 78.460938 C 255.597656 77.457031 252.828125 74.027344 252.828125 69.964844 C 252.828125 64.640625 257.582031 60.40625 263.070312 61.285156 C 266.917969 61.902344 269.925781 65.082031 270.359375 68.953125 C 270.863281 73.449219 267.953125 77.375 263.890625 78.460938 C 263.589844 78.539062 263.386719 78.824219 263.386719 79.136719 L 263.386719 115.566406 C 263.386719 115.882812 263.183594 116.15625 262.882812 116.246094 L 219.292969 129.222656 C 219.257812 129.230469 219.226562 129.238281 219.191406 129.246094 C 219.167969 129.25 219.144531 129.253906 219.121094 129.257812 C 219.023438 129.277344 218.921875 129.292969 218.820312 129.292969 C 218.816406 129.292969 218.816406 129.292969 218.816406 129.292969 C 218.804688 129.296875 218.796875 129.296875 218.785156 129.296875 C 218.683594 129.296875 218.582031 129.285156 218.480469 129.265625 C 218.476562 129.265625 218.476562 129.265625 218.472656 129.265625 C 218.371094 129.246094 218.273438 129.21875 218.179688 129.183594 C 218.152344 129.171875 218.128906 129.164062 218.105469 129.152344 C 218.027344 129.121094 217.953125 129.082031 217.886719 129.042969 C 217.859375 129.027344 217.835938 129.011719 217.8125 128.996094 C 217.730469 128.941406 217.652344 128.878906 217.578125 128.8125 C 217.574219 128.808594 217.566406 128.804688 217.558594 128.796875 C 217.554688 128.792969 217.546875 128.785156 217.539062 128.777344 C 217.535156 128.773438 217.53125 128.769531 217.527344 128.765625 C 213.082031 124.476562 207.667969 121.144531 201.867188 119.125 C 201.855469 119.121094 201.847656 119.113281 201.835938 119.109375 C 201.785156 119.089844 201.726562 119.070312 201.675781 119.042969 C 201.65625 119.03125 201.636719 119.023438 201.617188 119.011719 C 201.574219 118.988281 201.53125 118.964844 201.492188 118.9375 C 201.472656 118.921875 201.449219 118.910156 201.429688 118.894531 C 201.394531 118.867188 201.355469 118.839844 201.320312 118.8125 C 201.296875 118.792969 201.277344 118.777344 201.257812 118.757812 C 201.226562 118.730469 201.199219 118.699219 201.167969 118.667969 C 201.148438 118.644531 201.125 118.625 201.109375 118.601562 C 201.097656 118.589844 201.089844 118.585938 201.082031 118.574219 C 201.074219 118.566406 201.070312 118.554688 201.0625 118.542969 C 201 118.46875 200.949219 118.386719 200.902344 118.300781 C 200.894531 118.289062 200.886719 118.28125 200.878906 118.269531 C 200.835938 118.179688 200.796875 118.085938 200.769531 117.992188 C 200.761719 117.960938 200.753906 117.9375 200.746094 117.910156 C 200.738281 117.882812 200.726562 117.859375 200.722656 117.828125 C 200.707031 117.769531 200.699219 117.707031 200.695312 117.644531 C 200.691406 117.636719 200.691406 117.625 200.691406 117.613281 C 200.679688 117.511719 200.683594 117.414062 200.691406 117.316406 C 200.691406 117.292969 200.695312 117.265625 200.699219 117.242188 C 200.710938 117.152344 200.726562 117.058594 200.753906 116.972656 C 200.753906 116.960938 200.753906 116.953125 200.757812 116.945312 C 200.785156 116.851562 200.828125 116.757812 200.871094 116.671875 C 200.882812 116.644531 200.894531 116.621094 200.910156 116.597656 C 200.957031 116.511719 201.007812 116.425781 201.070312 116.347656 C 201.074219 116.34375 201.082031 116.335938 201.089844 116.328125 C 201.132812 116.277344 201.179688 116.226562 201.230469 116.179688 C 205.121094 112.460938 207.265625 107.453125 207.265625 102.082031 C 207.265625 90.777344 197.59375 81.6875 186.089844 82.65625 C 176.488281 83.464844 168.828125 91.347656 168.304688 100.96875 C 167.988281 106.761719 170.148438 112.203125 174.308594 116.179688 C 174.359375 116.226562 174.40625 116.277344 174.449219 116.328125 C 174.457031 116.335938 174.460938 116.34375 174.46875 116.347656 C 174.53125 116.425781 174.582031 116.511719 174.628906 116.597656 C 174.644531 116.621094 174.65625 116.644531 174.667969 116.671875 C 174.710938 116.757812 174.75 116.851562 174.78125 116.945312 C 174.78125 116.953125 174.785156 116.960938 174.785156 116.972656 C 174.8125 117.058594 174.828125 117.152344 174.839844 117.242188 C 174.84375 117.265625 174.84375 117.292969 174.847656 117.316406 C 174.855469 117.414062 174.855469 117.511719 174.847656 117.613281 C 174.847656 117.625 174.84375 117.636719 174.84375 117.644531 C 174.835938 117.707031 174.828125 117.769531 174.816406 117.828125 C 174.808594 117.859375 174.800781 117.882812 174.792969 117.910156 C 174.785156 117.9375 174.777344 117.960938 174.769531 117.992188 C 174.738281 118.085938 174.703125 118.179688 174.65625 118.269531 C 174.652344 118.28125 174.640625 118.289062 174.636719 118.300781 C 174.589844 118.386719 174.535156 118.46875 174.476562 118.542969 C 174.46875 118.554688 174.464844 118.566406 174.457031 118.574219 C 174.449219 118.585938 174.4375 118.589844 174.429688 118.601562 C 174.410156 118.625 174.390625 118.644531 174.371094 118.667969 C 174.339844 118.699219 174.308594 118.730469 174.277344 118.757812 C 174.257812 118.773438 174.238281 118.792969 174.21875 118.8125 C 174.183594 118.839844 174.144531 118.867188 174.109375 118.894531 C 174.089844 118.910156 174.066406 118.921875 174.046875 118.9375 C 174.007812 118.964844 173.964844 118.988281 173.921875 119.011719 C 173.902344 119.023438 173.882812 119.03125 173.863281 119.042969 C 173.808594 119.070312 173.753906 119.089844 173.699219 119.109375 C 173.691406 119.113281 173.679688 119.121094 173.667969 119.125 C 167.867188 121.144531 162.453125 124.480469 158.007812 128.769531 C 157.996094 128.78125 157.988281 128.789062 157.976562 128.796875 C 157.964844 128.808594 157.953125 128.8125 157.945312 128.824219 C 157.878906 128.882812 157.808594 128.941406 157.738281 128.988281 C 157.707031 129.011719 157.679688 129.027344 157.648438 129.042969 C 157.585938 129.078125 157.523438 129.113281 157.457031 129.140625 C 157.425781 129.15625 157.394531 129.171875 157.359375 129.183594 C 157.289062 129.210938 157.214844 129.230469 157.140625 129.246094 C 157.113281 129.253906 157.089844 129.261719 157.0625 129.265625 C 156.960938 129.285156 156.855469 129.296875 156.75 129.296875 C 156.648438 129.296875 156.542969 129.28125 156.441406 129.265625 C 156.410156 129.257812 156.382812 129.253906 156.351562 129.246094 C 156.316406 129.238281 156.28125 129.234375 156.246094 129.222656 L 112.65625 116.246094 C 112.355469 116.15625 112.148438 115.882812 112.148438 115.566406 L 112.148438 79.136719 C 112.148438 78.824219 111.945312 78.539062 111.644531 78.460938 Z M 282.726562 198.851562 C 283.164062 195.417969 280.261719 192.511719 276.824219 192.949219 C 274.480469 193.25 272.589844 195.140625 272.292969 197.480469 C 271.855469 200.917969 274.757812 203.824219 278.195312 203.386719 C 280.539062 203.089844 282.429688 201.195312 282.726562 198.851562 Z M 258.242188 219.894531 C 254.804688 219.457031 251.90625 222.359375 252.339844 225.796875 C 252.636719 228.140625 254.53125 230.03125 256.875 230.328125 C 260.308594 230.765625 263.214844 227.863281 262.777344 224.425781 C 262.476562 222.082031 260.585938 220.191406 258.242188 219.894531 Z M 286.304688 198.167969 C 286.304688 203.492188 281.546875 207.726562 276.0625 206.847656 C 272.578125 206.285156 269.242188 202.832031 268.792969 199.332031 C 268.320312 195.675781 270.105469 192.386719 272.949219 190.652344 C 273.214844 190.488281 273.335938 190.164062 273.246094 189.863281 L 263.414062 156.171875 C 263.335938 155.898438 263.097656 155.699219 262.816406 155.667969 L 234.515625 152.554688 C 234.058594 152.503906 233.679688 152.898438 233.742188 153.355469 C 234.019531 155.421875 234.160156 157.515625 234.160156 159.605469 C 234.160156 165.40625 233.113281 171.019531 231.046875 176.34375 C 230.886719 176.757812 231.132812 177.210938 231.566406 177.296875 L 250.632812 181.023438 C 251.351562 181.164062 251.910156 181.734375 252.035156 182.457031 L 257.75 215.777344 C 257.800781 216.082031 258.050781 216.328125 258.359375 216.355469 C 262.835938 216.761719 266.351562 220.535156 266.351562 225.113281 C 266.351562 230.4375 261.597656 234.667969 256.109375 233.789062 C 252.53125 233.214844 249.191406 229.65625 248.8125 226.054688 C 248.402344 222.125 250.601562 218.640625 253.886719 217.125 C 254.167969 216.992188 254.320312 216.679688 254.269531 216.375 L 248.839844 184.738281 C 248.789062 184.449219 248.566406 184.21875 248.277344 184.164062 L 228.039062 180.207031 C 227.851562 180.1875 227.664062 180.136719 227.484375 180.050781 C 227.410156 180.015625 227.34375 179.972656 227.277344 179.929688 C 227.265625 179.917969 227.25 179.910156 227.234375 179.902344 C 227.15625 179.847656 227.082031 179.785156 227.015625 179.722656 C 227 179.707031 226.984375 179.695312 226.972656 179.679688 C 226.910156 179.617188 226.855469 179.546875 226.804688 179.476562 C 226.785156 179.457031 226.769531 179.433594 226.753906 179.410156 C 226.714844 179.34375 226.675781 179.277344 226.644531 179.207031 C 226.628906 179.171875 226.609375 179.136719 226.59375 179.101562 C 226.570312 179.039062 226.550781 178.976562 226.535156 178.914062 C 226.523438 178.863281 226.503906 178.816406 226.496094 178.765625 C 226.484375 178.710938 226.484375 178.652344 226.476562 178.597656 C 226.472656 178.539062 226.464844 178.480469 226.46875 178.417969 C 226.46875 178.367188 226.476562 178.316406 226.480469 178.261719 C 226.488281 178.210938 226.484375 178.160156 226.496094 178.105469 C 226.5 178.089844 226.503906 178.078125 226.507812 178.066406 C 226.519531 178.03125 226.53125 177.996094 226.539062 177.960938 C 226.5625 177.875 226.589844 177.792969 226.628906 177.714844 C 226.628906 177.710938 226.628906 177.707031 226.628906 177.703125 C 229.28125 172.019531 230.625 165.929688 230.625 159.605469 C 230.625 156.503906 230.296875 153.410156 229.640625 150.410156 C 229.597656 150.207031 229.640625 150 229.757812 149.828125 C 230.390625 148.90625 231.125 148.691406 231.769531 148.808594 C 231.875 148.828125 231.976562 148.828125 232.082031 148.808594 C 232.246094 148.777344 232.414062 148.769531 232.585938 148.785156 L 264.839844 152.335938 C 265.550781 152.414062 266.144531 152.914062 266.34375 153.597656 L 276.636719 188.867188 C 276.726562 189.175781 277.011719 189.382812 277.332031 189.375 C 277.390625 189.375 277.449219 189.371094 277.507812 189.371094 C 282.359375 189.371094 286.304688 193.316406 286.304688 198.167969 Z M 118.664062 219.894531 C 115.226562 219.457031 112.324219 222.359375 112.761719 225.796875 C 113.058594 228.140625 114.953125 230.03125 117.292969 230.328125 C 120.730469 230.765625 123.632812 227.863281 123.199219 224.425781 C 122.898438 222.082031 121.007812 220.191406 118.664062 219.894531 Z M 103.246094 198.851562 C 103.683594 195.417969 100.777344 192.511719 97.34375 192.949219 C 95 193.25 93.109375 195.140625 92.808594 197.480469 C 92.375 200.917969 95.277344 203.824219 98.714844 203.386719 C 101.054688 203.089844 102.949219 201.195312 103.246094 198.851562 Z M 148.800781 179.378906 C 148.761719 179.441406 148.714844 179.5 148.667969 179.558594 C 148.644531 179.589844 148.621094 179.621094 148.589844 179.652344 C 148.542969 179.703125 148.488281 179.75 148.429688 179.796875 C 148.398438 179.824219 148.367188 179.855469 148.332031 179.878906 C 148.273438 179.921875 148.207031 179.957031 148.140625 179.992188 C 148.109375 180.011719 148.082031 180.03125 148.050781 180.046875 C 148.039062 180.050781 148.027344 180.054688 148.015625 180.0625 C 147.992188 180.070312 147.972656 180.078125 147.953125 180.085938 C 147.855469 180.125 147.753906 180.15625 147.652344 180.175781 C 147.652344 180.175781 147.648438 180.175781 147.644531 180.175781 L 127.257812 184.164062 C 126.972656 184.21875 126.75 184.449219 126.699219 184.738281 L 121.273438 216.363281 C 121.21875 216.675781 121.371094 216.996094 121.660156 217.128906 C 124.675781 218.523438 126.773438 221.578125 126.773438 225.113281 C 126.773438 230.4375 122.015625 234.671875 116.527344 233.789062 C 112.636719 233.164062 109.707031 230.085938 109.246094 226.171875 C 108.652344 221.128906 112.363281 216.792969 117.175781 216.355469 C 117.488281 216.328125 117.734375 216.082031 117.789062 215.777344 L 123.503906 182.457031 C 123.628906 181.734375 124.1875 181.164062 124.90625 181.023438 L 143.972656 177.296875 C 144.40625 177.210938 144.652344 176.757812 144.492188 176.34375 C 142.425781 171.019531 141.378906 165.402344 141.378906 159.605469 C 141.378906 157.515625 141.519531 155.421875 141.796875 153.355469 C 141.859375 152.898438 141.480469 152.503906 141.019531 152.554688 L 112.722656 155.667969 C 112.441406 155.699219 112.203125 155.898438 112.121094 156.171875 L 102.292969 189.863281 C 102.203125 190.164062 102.324219 190.488281 102.589844 190.652344 C 105.125 192.199219 106.824219 194.988281 106.824219 198.167969 C 106.824219 203.347656 102.320312 207.496094 97.023438 206.90625 C 92.988281 206.457031 89.738281 203.207031 89.289062 199.171875 C 88.699219 193.875 92.847656 189.371094 98.027344 189.371094 C 98.085938 189.371094 98.148438 189.375 98.207031 189.375 C 98.527344 189.382812 98.8125 189.175781 98.902344 188.867188 L 109.191406 153.597656 C 109.394531 152.914062 109.988281 152.414062 110.695312 152.335938 L 142.949219 148.785156 C 143.101562 148.769531 143.25 148.78125 143.394531 148.800781 C 144.128906 148.484375 145.082031 148.644531 145.800781 149.660156 C 145.925781 149.835938 145.976562 150.054688 145.929688 150.265625 C 145.253906 153.308594 144.910156 156.457031 144.910156 159.605469 C 144.910156 165.925781 146.253906 172.015625 148.90625 177.699219 C 148.90625 177.703125 148.90625 177.707031 148.910156 177.710938 C 148.949219 177.796875 148.976562 177.886719 149.003906 177.980469 C 149.011719 178.003906 149.019531 178.03125 149.027344 178.050781 C 149.03125 178.070312 149.039062 178.085938 149.042969 178.105469 C 149.054688 178.175781 149.054688 178.242188 149.058594 178.3125 C 149.0625 178.339844 149.066406 178.371094 149.066406 178.398438 C 149.070312 178.488281 149.0625 178.574219 149.050781 178.660156 C 149.050781 178.6875 149.046875 178.714844 149.042969 178.742188 C 149.03125 178.824219 149.007812 178.90625 148.980469 178.988281 C 148.972656 179.015625 148.964844 179.042969 148.953125 179.070312 C 148.925781 179.144531 148.890625 179.214844 148.851562 179.285156 C 148.835938 179.316406 148.820312 179.347656 148.800781 179.378906 Z M 224.980469 187.3125 C 216.125 199.179688 202.527344 205.996094 187.769531 205.996094 C 173.203125 205.996094 159.765625 199.355469 150.902344 187.769531 C 150.011719 186.605469 150.792969 184.6875 152.863281 184.898438 C 153.066406 184.921875 153.253906 185.019531 153.378906 185.183594 C 161.558594 196.160156 174.128906 202.464844 187.769531 202.464844 C 201.226562 202.464844 213.640625 196.328125 221.832031 185.621094 C 222.71875 184.460938 224.761719 184.707031 225.113281 186.738281 C 225.148438 186.941406 225.105469 187.148438 224.980469 187.3125 " fill-opacity="1" fill-rule="nonzero"/></g><g fill="#ffffff" fill-opacity="1"><g transform="translate(52.891511, 301.870198)"><g><path d="M 4.65625 0 L 4.65625 -39.390625 L 9.515625 -39.390625 L 9.515625 -4.484375 L 29.34375 -4.484375 L 29.34375 0 Z M 4.65625 0 "/></g></g></g><g fill="#ffffff" fill-opacity="1"><g transform="translate(86.61682, 301.870198)"><g><path d="M 9.515625 0 L 3.90625 -5.609375 L 3.90625 -39.390625 L 8.765625 -39.390625 L 8.765625 -7.265625 L 11.703125 -4.328125 L 25.875 -4.328125 L 28.8125 -7.265625 L 28.8125 -39.390625 L 33.671875 -39.390625 L 33.671875 -5.609375 L 28.0625 0 Z M 9.515625 0 "/></g></g></g><g fill="#ffffff" fill-opacity="1"><g transform="translate(128.038219, 301.870198)"><g><path d="M 3.3125 0 L 3.3125 -4.484375 L 8.125 -4.484375 L 8.125 -34.90625 L 3.3125 -34.90625 L 3.3125 -39.390625 L 17.796875 -39.390625 L 17.796875 -34.90625 L 12.984375 -34.90625 L 12.984375 -4.484375 L 17.796875 -4.484375 L 17.796875 0 Z M 3.3125 0 "/></g></g></g><g fill="#ffffff" fill-opacity="1"><g transform="translate(152.998533, 301.870198)"><g><path d="M 4.703125 0 L 4.703125 -4.484375 L 24.109375 -4.484375 L 27 -7.4375 L 27 -15.28125 L 24.109375 -18.234375 L 8.875 -18.234375 L 3.3125 -23.78125 L 3.3125 -33.78125 L 8.875 -39.390625 L 29.828125 -39.390625 L 29.828125 -34.90625 L 11.0625 -34.90625 L 8.125 -31.96875 L 8.171875 -25.4375 L 11.0625 -22.5 L 26.296875 -22.5 L 31.859375 -16.890625 L 31.859375 -5.609375 L 26.296875 0 Z M 4.703125 0 "/></g></g></g><g fill="#ffffff" fill-opacity="1"><g transform="translate(192.014901, 301.870198)"><g/></g></g><g fill="#ffffff" fill-opacity="1"><g transform="translate(207.72924, 301.870198)"><g><path d="M 4.65625 0 L 4.65625 -39.390625 L 26.03125 -39.390625 L 34.203125 -31.109375 L 34.203125 -8.28125 L 26.03125 0 Z M 9.515625 -4.328125 L 23.84375 -4.328125 L 29.34375 -9.9375 L 29.34375 -29.453125 L 23.84375 -35.0625 L 9.515625 -35.0625 Z M 9.515625 -4.328125 "/></g></g></g><g fill="#ffffff" fill-opacity="1"><g transform="translate(249.25751, 301.870198)"><g><path d="M 4.65625 0 L 4.65625 -39.390625 L 30.625 -39.390625 L 30.625 -34.90625 L 9.515625 -34.90625 L 9.515625 -22.9375 L 28.390625 -22.9375 L 28.390625 -18.5 L 9.515625 -18.5 L 9.515625 -4.484375 L 30.625 -4.484375 L 30.625 0 Z M 4.65625 0 "/></g></g></g><g fill="#ffffff" fill-opacity="1"><g transform="translate(286.510193, 301.870198)"><g><path d="M 14.0625 0 L 0.6875 -39.390625 L 5.828125 -39.390625 L 17.21875 -4.65625 L 18.390625 -4.65625 L 29.765625 -39.390625 L 34.90625 -39.390625 L 21.546875 0 Z M 14.0625 0 "/></g></g></g><g fill="#ffffff" fill-opacity="1"><g transform="translate(12.553694, 337.39716)"><g><path d="M 7.875 -13.765625 C 8.832031 -13.765625 9.769531 -13.578125 10.6875 -13.203125 C 11.613281 -12.828125 12.410156 -12.3125 13.078125 -11.65625 L 11.734375 -9.96875 C 11.234375 -10.5 10.644531 -10.921875 9.96875 -11.234375 C 9.289062 -11.546875 8.601562 -11.703125 7.90625 -11.703125 C 6.539062 -11.703125 5.382812 -11.234375 4.4375 -10.296875 C 3.488281 -9.367188 3.015625 -8.234375 3.015625 -6.890625 C 3.015625 -5.535156 3.488281 -4.390625 4.4375 -3.453125 C 5.382812 -2.523438 6.539062 -2.0625 7.90625 -2.0625 C 9.332031 -2.0625 10.609375 -2.601562 11.734375 -3.6875 L 13.09375 -2.15625 C 12.394531 -1.457031 11.570312 -0.90625 10.625 -0.5 C 9.6875 -0.101562 8.742188 0.09375 7.796875 0.09375 C 5.785156 0.09375 4.09375 -0.570312 2.71875 -1.90625 C 1.351562 -3.25 0.671875 -4.90625 0.671875 -6.875 C 0.671875 -8.820312 1.363281 -10.457031 2.75 -11.78125 C 4.132812 -13.101562 5.84375 -13.765625 7.875 -13.765625 Z M 7.875 -13.765625 "/></g></g></g><g fill="#ffffff" fill-opacity="1"><g transform="translate(34.103008, 337.39716)"><g><path d="M 2.765625 -11.78125 C 4.160156 -13.101562 5.878906 -13.765625 7.921875 -13.765625 C 9.972656 -13.765625 11.695312 -13.101562 13.09375 -11.78125 C 14.488281 -10.457031 15.1875 -8.816406 15.1875 -6.859375 C 15.1875 -4.898438 14.488281 -3.25 13.09375 -1.90625 C 11.695312 -0.570312 9.972656 0.09375 7.921875 0.09375 C 5.878906 0.09375 4.160156 -0.570312 2.765625 -1.90625 C 1.367188 -3.25 0.671875 -4.898438 0.671875 -6.859375 C 0.671875 -8.816406 1.367188 -10.457031 2.765625 -11.78125 Z M 7.953125 -11.6875 C 6.585938 -11.6875 5.421875 -11.21875 4.453125 -10.28125 C 3.492188 -9.351562 3.015625 -8.207031 3.015625 -6.84375 C 3.015625 -5.488281 3.5 -4.335938 4.46875 -3.390625 C 5.445312 -2.453125 6.609375 -1.984375 7.953125 -1.984375 C 9.296875 -1.984375 10.441406 -2.453125 11.390625 -3.390625 C 12.347656 -4.335938 12.828125 -5.488281 12.828125 -6.84375 C 12.828125 -8.207031 12.347656 -9.351562 11.390625 -10.28125 C 10.441406 -11.21875 9.296875 -11.6875 7.953125 -11.6875 Z M 7.953125 -11.6875 "/></g></g></g><g fill="#ffffff" fill-opacity="1"><g transform="translate(57.863454, 337.39716)"><g><path d="M 16.296875 0 L 14.15625 0 L 14.140625 -10.234375 L 9.8125 -1.421875 L 8.296875 -1.421875 L 3.96875 -10.234375 L 3.96875 0 L 1.796875 0 L 1.796875 -13.703125 L 4.546875 -13.703125 L 9.0625 -4.59375 L 13.5625 -13.703125 L 16.296875 -13.703125 Z M 16.296875 0 "/></g></g></g><g fill="#ffffff" fill-opacity="1"><g transform="translate(83.874146, 337.39716)"><g><path d="M 1.796875 -13.703125 L 7.265625 -13.703125 C 8.984375 -13.703125 10.316406 -13.289062 11.265625 -12.46875 C 12.210938 -11.65625 12.6875 -10.507812 12.6875 -9.03125 C 12.6875 -7.476562 12.210938 -6.269531 11.265625 -5.40625 C 10.316406 -4.550781 8.984375 -4.125 7.265625 -4.125 L 4.109375 -4.125 L 4.109375 0 L 1.796875 0 Z M 4.109375 -11.625 L 4.109375 -6.203125 L 7.171875 -6.203125 C 9.367188 -6.203125 10.46875 -7.125 10.46875 -8.96875 C 10.46875 -10.738281 9.367188 -11.625 7.171875 -11.625 Z M 4.109375 -11.625 "/></g></g></g><g fill="#ffffff" fill-opacity="1"><g transform="translate(104.95385, 337.39716)"><g><path d="M 13.453125 -13.703125 L 13.453125 -5.671875 C 13.453125 -3.890625 12.921875 -2.484375 11.859375 -1.453125 C 10.804688 -0.421875 9.351562 0.09375 7.5 0.09375 C 5.644531 0.09375 4.1875 -0.421875 3.125 -1.453125 C 2.0625 -2.484375 1.53125 -3.890625 1.53125 -5.671875 L 1.53125 -13.703125 L 3.84375 -13.703125 L 3.84375 -5.671875 C 3.84375 -4.523438 4.171875 -3.625 4.828125 -2.96875 C 5.484375 -2.3125 6.378906 -1.984375 7.515625 -1.984375 C 8.640625 -1.984375 9.523438 -2.304688 10.171875 -2.953125 C 10.816406 -3.609375 11.140625 -4.515625 11.140625 -5.671875 L 11.140625 -13.703125 Z M 13.453125 -13.703125 "/></g></g></g><g fill="#ffffff" fill-opacity="1"><g transform="translate(127.81419, 337.39716)"><g><path d="M 11.15625 -11.625 L 6.8125 -11.625 L 6.8125 0 L 4.5 0 L 4.5 -11.625 L 0.171875 -11.625 L 0.171875 -13.703125 L 11.15625 -13.703125 Z M 11.15625 -11.625 "/></g></g></g><g fill="#ffffff" fill-opacity="1"><g transform="translate(147.054567, 337.39716)"><g><path d="M 11.59375 -11.625 L 4.109375 -11.625 L 4.109375 -7.921875 L 10.8125 -7.921875 L 10.8125 -5.859375 L 4.109375 -5.859375 L 4.109375 -2.078125 L 11.828125 -2.078125 L 11.828125 0 L 1.796875 0 L 1.796875 -13.703125 L 11.59375 -13.703125 Z M 11.59375 -11.625 "/></g></g></g><g fill="#ffffff" fill-opacity="1"><g transform="translate(167.80162, 337.39716)"><g><path d="M 10.5 0 L 7.984375 -4.15625 C 7.859375 -4.132812 7.648438 -4.125 7.359375 -4.125 L 4.109375 -4.125 L 4.109375 0 L 1.796875 0 L 1.796875 -13.703125 L 7.359375 -13.703125 C 9.109375 -13.703125 10.460938 -13.289062 11.421875 -12.46875 C 12.390625 -11.65625 12.875 -10.507812 12.875 -9.03125 C 12.875 -7.925781 12.628906 -6.992188 12.140625 -6.234375 C 11.660156 -5.484375 10.960938 -4.929688 10.046875 -4.578125 L 13.125 0 Z M 4.109375 -6.203125 L 7.359375 -6.203125 C 9.578125 -6.203125 10.6875 -7.125 10.6875 -8.96875 C 10.6875 -10.738281 9.578125 -11.625 7.359375 -11.625 L 4.109375 -11.625 Z M 4.109375 -6.203125 "/></g></g></g><g fill="#ffffff" fill-opacity="1"><g transform="translate(189.859699, 337.39716)"><g/></g></g><g fill="#ffffff" fill-opacity="1"><g transform="translate(202.818938, 337.39716)"><g><path d="M 11.59375 -11.625 L 4.109375 -11.625 L 4.109375 -7.921875 L 10.8125 -7.921875 L 10.8125 -5.859375 L 4.109375 -5.859375 L 4.109375 -2.078125 L 11.828125 -2.078125 L 11.828125 0 L 1.796875 0 L 1.796875 -13.703125 L 11.59375 -13.703125 Z M 11.59375 -11.625 "/></g></g></g><g fill="#ffffff" fill-opacity="1"><g transform="translate(223.566002, 337.39716)"><g><path d="M 13.6875 0 L 11.421875 0 L 4.109375 -9.828125 L 4.109375 0 L 1.796875 0 L 1.796875 -13.703125 L 4.078125 -13.703125 L 11.421875 -3.859375 L 11.421875 -13.703125 L 13.6875 -13.703125 Z M 13.6875 0 "/></g></g></g><g fill="#ffffff" fill-opacity="1"><g transform="translate(246.97423, 337.39716)"><g><path d="M 11.171875 -6.734375 L 13.203125 -6.734375 L 13.203125 -1.6875 C 12.492188 -1.144531 11.660156 -0.710938 10.703125 -0.390625 C 9.742188 -0.0664062 8.800781 0.09375 7.875 0.09375 C 5.84375 0.09375 4.132812 -0.570312 2.75 -1.90625 C 1.363281 -3.25 0.671875 -4.898438 0.671875 -6.859375 C 0.671875 -8.816406 1.375 -10.457031 2.78125 -11.78125 C 4.1875 -13.101562 5.925781 -13.765625 8 -13.765625 C 8.96875 -13.765625 9.914062 -13.585938 10.84375 -13.234375 C 11.78125 -12.890625 12.59375 -12.425781 13.28125 -11.84375 L 11.96875 -10.140625 C 10.84375 -11.179688 9.519531 -11.703125 8 -11.703125 C 6.601562 -11.703125 5.421875 -11.234375 4.453125 -10.296875 C 3.492188 -9.359375 3.015625 -8.210938 3.015625 -6.859375 C 3.015625 -5.484375 3.5 -4.328125 4.46875 -3.390625 C 5.445312 -2.453125 6.632812 -1.984375 8.03125 -1.984375 C 9.082031 -1.984375 10.128906 -2.296875 11.171875 -2.921875 Z M 11.171875 -6.734375 "/></g></g></g><g fill="#ffffff" fill-opacity="1"><g transform="translate(269.541063, 337.39716)"><g><path d="M 4.109375 0 L 1.796875 0 L 1.796875 -13.703125 L 4.109375 -13.703125 Z M 4.109375 0 "/></g></g></g><g fill="#ffffff" fill-opacity="1"><g transform="translate(283.361275, 337.39716)"><g><path d="M 13.6875 0 L 11.421875 0 L 4.109375 -9.828125 L 4.109375 0 L 1.796875 0 L 1.796875 -13.703125 L 4.078125 -13.703125 L 11.421875 -3.859375 L 11.421875 -13.703125 L 13.6875 -13.703125 Z M 13.6875 0 "/></g></g></g><g fill="#ffffff" fill-opacity="1"><g transform="translate(306.769503, 337.39716)"><g><path d="M 11.59375 -11.625 L 4.109375 -11.625 L 4.109375 -7.921875 L 10.8125 -7.921875 L 10.8125 -5.859375 L 4.109375 -5.859375 L 4.109375 -2.078125 L 11.828125 -2.078125 L 11.828125 0 L 1.796875 0 L 1.796875 -13.703125 L 11.59375 -13.703125 Z M 11.59375 -11.625 "/></g></g></g><g fill="#ffffff" fill-opacity="1"><g transform="translate(327.516566, 337.39716)"><g><path d="M 11.59375 -11.625 L 4.109375 -11.625 L 4.109375 -7.921875 L 10.8125 -7.921875 L 10.8125 -5.859375 L 4.109375 -5.859375 L 4.109375 -2.078125 L 11.828125 -2.078125 L 11.828125 0 L 1.796875 0 L 1.796875 -13.703125 L 11.59375 -13.703125 Z M 11.59375 -11.625 "/></g></g></g><g fill="#ffffff" fill-opacity="1"><g transform="translate(348.26363, 337.39716)"><g><path d="M 10.5 0 L 7.984375 -4.15625 C 7.859375 -4.132812 7.648438 -4.125 7.359375 -4.125 L 4.109375 -4.125 L 4.109375 0 L 1.796875 0 L 1.796875 -13.703125 L 7.359375 -13.703125 C 9.109375 -13.703125 10.460938 -13.289062 11.421875 -12.46875 C 12.390625 -11.65625 12.875 -10.507812 12.875 -9.03125 C 12.875 -7.925781 12.628906 -6.992188 12.140625 -6.234375 C 11.660156 -5.484375 10.960938 -4.929688 10.046875 -4.578125 L 13.125 0 Z M 4.109375 -6.203125 L 7.359375 -6.203125 C 9.578125 -6.203125 10.6875 -7.125 10.6875 -8.96875 C 10.6875 -10.738281 9.578125 -11.625 7.359375 -11.625 L 4.109375 -11.625 Z M 4.109375 -6.203125 "/></g></g></g></svg>